<svg xmlns="http://www.w3.org/2000/svg" viewBox="0 0 489.53 426.46"><defs><style>.cls-1{fill:#1e8fff;}.cls-2{fill:#ffc768;}</style></defs><g id="Layer_2" data-name="Layer 2"><g id="Layer_1-2" data-name="Layer 1"><g id="Layer_1-2-2" data-name="Layer 1-2"><rect class="cls-1" width="341.89" height="350.97" rx="83.87"/><rect class="cls-2" x="156.71" y="75.49" width="332.82" height="350.97" rx="83.87"/><path class="cls-1" d="M323.08,319.43a18.51,18.51,0,0,1,5.57,36.3,3.53,3.53,0,0,0-.85.52h-5Z"/><path class="cls-1" d="M332.55,145.54c-.36,1,.52.73.94.82,23.12,4.63,39.33,17.82,47.62,39.79A61.47,61.47,0,0,1,345,265.23c-.51.19-1,.38-1.53.55-1.4.52-1.88,1-1.85,2.51v20.18a18.3,18.3,0,0,1-18.52,17.34v-73.7a24.94,24.94,0,0,0,21.18-12.47,24.63,24.63,0,0,0-18.15-36.7,20.41,20.41,0,0,1-3-.39v-37Z"/><path class="cls-1" d="M323.08,145.54v37a24.87,24.87,0,0,0-24.2,19.3c-.67,3-.4,5.87-.91,8.78a18.52,18.52,0,0,1-36.73-3,61.82,61.82,0,0,1,49.41-61c1.09-.21,2.18-.33,3.24-.57.27,0,1,0,.45-.67Z"/><path class="cls-1" d="M323.08,319.43v37.12h-4.6c.25-1.15-.75-.73-1.21-.88a18.54,18.54,0,0,1-6.44-31.55A17.45,17.45,0,0,1,323.08,319.43Z"/><path class="cls-1" d="M323.08,232.11v73.58a18.15,18.15,0,0,1-18.45-17.46q-.35-19.34,0-38.63A18.14,18.14,0,0,1,323.08,232.11Z"/></g></g></g></svg>