<?xml version="1.0" encoding="utf-8"?>
<!-- Generator: Adobe Illustrator 25.2.0, SVG Export Plug-In . SVG Version: 6.00 Build 0)  -->
<svg version="1.1" id="Layer_1" xmlns="http://www.w3.org/2000/svg" xmlns:xlink="http://www.w3.org/1999/xlink" x="0px" y="0px"
	 viewBox="0 0 489.5 426.5" style="enable-background:new 0 0 489.5 426.5;" xml:space="preserve">
<style type="text/css">
	.st0{fill:#1E8FFF;stroke:#FFFFFF;stroke-width:3;stroke-miterlimit:10;}
	.st1{fill:#FFCF68;stroke:#FFFFFF;stroke-width:3;stroke-miterlimit:10;}
	.st2{fill:#1E8FFF;}
</style>
<path class="st0" d="M83.9,0H258c46.3,0,83.9,37.5,83.9,83.9v183.2c0,46.3-37.5,83.9-83.9,83.9H83.9C37.5,351,0,313.4,0,267.1V83.9
	C0,37.5,37.5,0,83.9,0z"/>
<path class="st1" d="M240.6,75.5h165.1c46.3,0,83.9,37.5,83.9,83.9v183.2c0,46.3-37.5,83.9-83.9,83.9H240.6
	c-46.3,0-83.9-37.5-83.9-83.9V159.4C156.7,113,194.3,75.5,240.6,75.5z"/>
<g>
	<path class="st2" d="M328.8,148.2c2.6,0.5,5.3,1,7.9,1.6c25,5.6,44.1,27.4,46.4,52.9c2.6,27.9-13.7,53.3-40.1,62.6
		c-1.3,0.5-1.8,1-1.8,2.5c0.1,6.3,0.1,12.6,0,18.9c-0.1,9.2-7,16.6-16.2,17.7c-8.7,1-17-4.8-19.3-13.5c-0.4-1.6-0.6-3.3-0.6-5
		c0-11.6,0-23.3,0-34.9c0-10.5,7.7-18.2,18.2-18.4c12.6-0.3,22.6-9.4,23.9-21.8c1.3-11.7-6.8-22.8-18.7-25.7
		c-14.6-3.6-29.1,7.7-29.4,22.9c-0.2,7.6-3.4,13.4-10.3,16.8c-11.8,5.8-25.6-2.9-25.8-16.1c-0.4-28.2,20.5-53.9,48.3-59.2
		c2-0.4,4.1-0.3,5.9-1.2C321,148.2,324.9,148.2,328.8,148.2z"/>
	<path class="st2" d="M323.1,353.7c-10,0-18.1-8.2-18-18.2c0-10,8.2-18,18.2-18c9.9,0.1,17.9,8.2,17.9,18.1
		C341.2,345.7,333.1,353.8,323.1,353.7z"/>
</g>
</svg>
